<svg width="202" height="170" viewBox="0 0 202 170" fill="none" xmlns="http://www.w3.org/2000/svg">
<g clip-path="url(#clip0_123_2)">
<mask id="mask0_123_2" style="mask-type:luminance" maskUnits="userSpaceOnUse" x="0" y="0" width="202" height="170">
<path d="M202 0H0V170H202V0Z" fill="white"/>
</mask>
<g mask="url(#mask0_123_2)">
<mask id="mask1_123_2" style="mask-type:luminance" maskUnits="userSpaceOnUse" x="0" y="0" width="202" height="170">
<path d="M202 0H0V170H202V0Z" fill="white"/>
</mask>
<g mask="url(#mask1_123_2)">
<path d="M110.003 169.883C156.455 169.883 194.112 131.853 194.112 84.9415C194.112 38.0297 156.455 0 110.003 0C63.5512 0 25.8943 38.0297 25.8943 84.9415C25.8943 131.853 63.5512 169.883 110.003 169.883Z" fill="#231F20"/>
<path d="M110.004 163.383C152.901 163.383 187.677 128.263 187.677 84.9407C187.677 41.6188 152.901 6.49927 110.004 6.49927C67.106 6.49927 32.3308 41.6188 32.3308 84.9407C32.3308 128.263 67.106 163.383 110.004 163.383Z" fill="#E99E22"/>
<path d="M16.4498 59.9045C16.4498 59.9045 12.7324 84.9295 24.5006 103.079C24.5006 103.079 23.8848 119.974 33.4805 124.35C33.4805 124.35 32.5513 122.156 33.7942 118.718C33.7942 118.718 36.2687 125.605 43.7036 126.849C43.7036 126.849 42.1587 123.716 42.7744 119.657C42.7744 119.657 44.0174 124.667 51.1389 126.544C51.1389 126.544 52.3818 123.106 51.7543 119.974C51.7543 119.974 58.5738 126.227 74.0594 125.288C74.0594 125.288 64.7657 134.357 60.7345 149.375C60.7345 149.375 76.5107 164.404 109.062 164.075C140.045 163.758 162.037 151.404 173.967 129.5C173.967 129.5 164.209 111.515 149.339 107.444C149.339 107.444 146.086 96.0985 149.49 89.8454C151.035 92.6612 154.915 99.9349 163.535 102.962C173.339 98.234 187.233 88.5312 202 68.6451C202 68.6451 178.15 32.3575 154.602 23.5935C154.602 23.5935 148.096 24.8488 139.499 35.1731C139.499 35.1731 126.72 31.1842 109.062 32.3575C109.062 32.3575 105.031 27.9814 98.2231 24.8488C90.1724 24.2271 72.3518 36.8159 67.5537 56.1387C67.5654 56.1505 21.4103 46.4595 16.4498 59.9045Z" fill="#231F20"/>
<path d="M105.589 33.0846C105.589 33.0846 101.175 27.9225 97.4571 26.9839C97.4571 26.9839 78.4049 28.861 69.7271 56.4671L75.3032 57.0889C75.3032 57.0889 79.6365 45.5093 88.0009 38.6341C88.0123 38.6341 93.5073 34.7274 105.589 33.0846Z" fill="#A45125"/>
<path d="M21.097 69.6069C21.097 69.6069 26.0574 78.3711 33.7946 79.6144C33.7946 79.6144 32.5515 85.246 35.0375 92.7547L25.7438 99.6417C25.7438 99.6417 17.0657 84.9409 21.097 69.6069Z" fill="#A45125"/>
<path d="M146.635 110.588C146.635 110.588 142.162 96.064 146.948 85.8686C156.242 79.2984 152.06 61.231 149.969 58.1805C157.869 67.097 154.848 82.5837 151.828 87.0419C154.697 94.0812 162.318 98.1991 164.92 98.6918C164.92 98.6918 188.469 87.2763 197.134 68.5047C197.134 68.5047 178.547 38.3176 155.627 26.738C155.627 26.738 143.858 28.6152 133.635 55.2124C133.635 55.2124 135.029 44.3366 139.06 37.7664C139.06 37.7664 112.341 29.0846 90.5817 40.5002C90.5817 40.5002 82.3684 47.1521 78.1864 59.5882C72.2964 59.5062 65.4887 57.3946 54.0223 57.7114C54.0223 57.7114 52.4773 71.4732 38.5367 79.6152C38.5367 79.6152 36.3642 83.9914 38.2229 93.072C38.2229 93.072 56.1948 104.957 67.0337 103.713C67.0337 103.713 76.1765 101.367 91.9758 86.1971C91.9758 86.1971 98.0169 82.7595 93.9854 87.7575C93.9854 87.7575 82.5196 102.153 66.4179 108.406C66.4179 108.406 44.4266 101.519 36.9917 95.266C36.9917 95.266 31.5663 99.1727 28.7782 103.866C28.3134 105.121 28.7782 115.281 31.1015 117.792C31.1015 117.792 31.1015 113.099 33.8897 110.6C33.8897 110.6 34.2035 114.038 39.1521 118.731C39.1521 118.731 38.8387 116.232 41.0112 113.416C41.0112 113.416 44.4149 117.792 48.4461 119.986C48.4461 119.986 47.2031 117.487 48.7599 113.099C48.7599 113.099 51.5712 122.86 75.3981 121.863C75.3981 121.863 95.1475 120.842 111.644 112.865C111.644 112.865 112.108 115.915 108.855 118.026C108.855 118.026 91.662 124.831 78.651 125.301C78.651 125.301 69.1247 137.737 66.3365 149.704C66.3365 149.704 89.4782 169.66 127.443 162.374C158.016 155.288 166.161 134.038 166.161 134.038C166.161 134.038 158.868 112.078 146.635 110.588Z" fill="#A45125"/>
<path d="M86.9431 45.7556C89.2667 45.7556 92.345 48.5129 92.345 52.0325C92.345 56.2678 87.0011 61.1252 87.0011 61.1252L79.9148 59.7172C79.9148 59.7172 82.6447 52.0911 89.4407 47.6328C89.4407 47.6328 88.6275 46.401 86.9431 45.7556Z" fill="#231F20"/>
<path d="M90.2533 49.0994C90.2533 49.0994 91.4151 50.683 91.1828 52.5602C90.9505 54.4374 88.3945 57.8397 86.5358 59.3647L81.8892 58.5435C81.8892 58.5435 85.316 50.8003 90.2533 49.0994Z" fill="white"/>
<path d="M100.244 63.2369C100.244 63.2369 103.033 49.041 112.675 44.8174C116.625 43.5268 121.039 44.9345 121.62 50.6834C121.62 50.6834 119.297 45.4039 115.231 46.6943C115.231 46.6943 123.014 48.4541 119.064 65.1141C113.139 68.1643 103.265 67.3431 100.244 63.2369Z" fill="#231F20"/>
<path d="M101.988 62.6506C101.988 62.6506 106.17 47.7507 112.56 47.3986C118.949 47.0468 120.227 57.7232 117.787 63.5892C117.787 63.5892 110.12 68.2821 101.988 62.6506Z" fill="white"/>
<path d="M115.615 52.2551C112.339 51.3518 108.807 53.8979 107.716 57.9334C106.949 60.7845 107.611 63.6238 109.214 65.3601C114.14 65.8175 117.788 63.5885 117.788 63.5885C118.822 61.0895 119.193 57.7222 118.775 54.7073C118.032 53.5105 116.951 52.6189 115.615 52.2551Z" fill="#231F20"/>
<path d="M90.1256 52.6303C88.0459 52.0556 85.8155 53.6745 85.1186 56.232C84.8514 57.2295 84.8631 58.2266 85.0954 59.1063L86.5358 59.3646C88.232 57.9683 90.509 55.012 91.0665 53.0763C90.7879 52.8768 90.4742 52.7242 90.1256 52.6303Z" fill="#231F20"/>
<path d="M86.606 53.147C86.606 52.3375 87.2563 51.6804 88.0581 51.6804C88.8596 51.6804 89.5102 52.3375 89.5102 53.147C89.5102 53.9565 88.8596 54.6136 88.0581 54.6136C87.2563 54.6136 86.606 53.9565 86.606 53.147Z" fill="white"/>
<path d="M109.584 53.8628C109.584 52.666 110.549 51.6924 111.734 51.6924C112.919 51.6924 113.883 52.666 113.883 53.8628C113.883 55.0594 112.919 56.0333 111.734 56.0333C110.549 56.0333 109.584 55.0594 109.584 53.8628Z" fill="white"/>
<path d="M58.2717 72.4234C58.2717 72.4234 69.4244 70.5462 81.1926 77.4331C81.1926 77.4331 69.343 71.0977 57.9583 74.6173C57.9583 74.6173 54.5543 73.0452 58.2717 72.4234Z" fill="#231F20"/>
<path d="M56.4942 76.2597C56.4942 76.2597 67.7163 77.691 77.0334 87.6988C77.0334 87.6988 67.484 78.1954 55.5764 78.266C55.5764 78.266 52.7536 75.7788 56.4942 76.2597Z" fill="#231F20"/>
<path d="M54.3914 80.5656C54.3914 80.5656 63.2439 83.792 68.9944 93.6353C68.9944 93.6353 62.9533 84.1555 53.2762 82.0318C53.2879 82.0318 51.4523 79.4861 54.3914 80.5656Z" fill="#231F20"/>
<path d="M17.1121 72.5405C17.1121 72.5405 8.7826 70.6634 0 77.5503C0 77.5503 8.84069 71.2149 17.3446 74.7345C17.3446 74.7345 19.8886 73.1624 17.1121 72.5405Z" fill="#231F20"/>
<path d="M16.4609 77.081C16.4609 77.081 8.08495 78.5123 1.12622 88.52C1.12622 88.52 8.25919 79.017 17.1463 79.0873C17.1463 79.0873 19.2491 76.6001 16.4609 77.081Z" fill="#231F20"/>
<path d="M18.0292 81.3868C18.0292 81.3868 11.419 84.6132 7.12061 94.4566C7.12061 94.4566 11.6281 84.9771 18.854 82.8534C18.854 82.8534 20.2248 80.3073 18.0292 81.3868Z" fill="#231F20"/>
<path d="M123.328 135.624C116.823 122.484 107.529 124.678 107.529 124.678C97.9217 131.248 98.8509 137.818 98.8509 137.818C96.0629 133.442 97.3059 126.872 97.3059 126.872C89.5572 134.697 90.1844 147.204 90.1844 147.204C87.0827 142.828 87.3965 136.258 87.3965 136.258C83.365 144.153 83.5047 154.982 83.795 159.628C94.2505 163.418 108.853 166.034 126.732 162.374C128.022 162.116 129.253 161.811 130.45 161.494C129.834 156.155 128.045 145.151 123.328 135.624Z" fill="white"/>
<path d="M28.2764 97.7645C22.1773 87.3696 22.5142 77.1392 23.1183 72.5048C21.8056 70.8741 21.097 69.6069 21.097 69.6069C17.0657 84.9409 25.7438 99.6417 25.7438 99.6417L28.2764 97.7645Z" fill="#E07343"/>
<path d="M36.2804 95.2656C36.2804 95.2656 30.855 99.1727 28.0669 103.866C27.6023 105.121 28.0669 115.281 30.3904 117.792C30.3904 117.792 30.3904 113.099 33.1784 110.6C33.1784 110.6 33.4338 113.428 37.1747 117.451C35.0254 112.172 35.3509 106.059 35.3509 106.059L30.3904 109.966C29.7747 107.62 30.3904 104.487 30.3904 104.487C31.9356 101.519 36.2804 97.9173 36.2804 97.9173C40.0327 100.147 47.6419 102.293 51.6963 103.349C45.8295 100.98 39.6027 98.0579 36.2804 95.2656Z" fill="#E07343"/>
<path d="M69.7383 56.4671L71.0513 56.6198C72.1431 53.7216 77.1735 42.5526 85.2242 35.6656C93.9486 28.2041 97.3061 29.0958 97.3061 29.0958C97.3061 29.0958 100.315 28.9902 103.951 31.36C102.325 29.7644 99.7571 27.5706 97.4572 26.9839C97.4572 26.9839 78.4047 28.861 69.7383 56.4671Z" fill="#E07343"/>
<path d="M37.3374 92.1685C37.3954 92.4617 37.4534 92.7668 37.5117 93.0718C37.5117 93.0718 55.4835 104.957 66.3224 103.713C66.3224 103.713 75.4649 101.366 91.2646 86.1969C91.2646 86.1969 96.4921 83.2167 93.9713 86.8423C98.2114 86.2087 107.215 94.3272 107.215 94.3272C105.205 83.6861 101.325 78.3713 95.5978 78.5237C92.1824 78.6175 89.7079 84.0029 89.7079 84.0029C81.9592 93.3886 65.2303 100.745 65.2303 100.745C53.7642 102.47 37.3488 92.1449 37.3488 92.1449L37.3374 92.1685Z" fill="#772F17"/>
<path d="M48.0486 113.099C48.0486 113.099 50.86 122.86 74.6868 121.863C74.6868 121.863 94.4359 120.842 110.932 112.865C110.932 112.865 111.118 114.12 110.398 115.586C128.823 111.175 140.057 122.802 140.057 122.802C136.025 119.047 124.873 120.303 124.873 120.303C124.873 120.303 135.096 123.119 141.602 135.003C145.761 142.594 146.121 149.798 146.806 155.652C162.699 147.615 168.856 136.728 168.856 136.728C168.856 136.728 158.168 112.09 145.935 110.6C145.935 110.6 141.463 96.0759 146.249 85.8805C155.543 79.3103 151.36 61.2429 149.269 58.1924C157.169 67.1089 154.148 82.5956 151.128 87.0538C153.997 94.0931 161.618 98.211 164.22 98.7037C164.22 98.7037 182.808 89.6816 193.043 74.5003C184.33 82.5603 173.351 86.6079 169.798 89.0013C165.15 92.1335 159.573 94.0107 160.817 85.2469C162.06 76.4828 157.413 66.7921 157.413 66.7921C160.515 68.3525 162.06 69.6079 162.06 69.6079C158.958 63.0377 151.837 54.9075 149.049 54.9075C146.26 54.9075 145.017 59.6001 142.543 73.3619C140.068 87.1241 122.41 103.08 101.65 110.905C80.8902 118.731 64.7888 115.281 64.7888 115.281C67.8905 117.475 70.365 118.719 70.365 118.719C55.1697 119.353 48.0486 113.099 48.0486 113.099Z" fill="#772F17"/>
<path d="M108.609 164.251C108.609 164.251 103.509 142.464 107.656 120.49C107.656 120.49 99.8841 104.264 99.6287 94.3152C99.6287 94.3152 111.025 97.7175 116.474 102.95C116.474 102.95 128.091 91.5112 144.471 93.8579C144.471 93.8579 144.459 82.8059 146.527 76.2593C146.527 76.2593 157.668 83.5918 161.56 99.2897C161.56 99.2897 170.03 102.774 181.646 116.384C175.837 137.267 143.693 166.516 108.609 164.251Z" fill="#231F20"/>
<path d="M115.348 164.37C115.348 164.37 107.843 139.908 111.502 120.491C111.502 120.491 102.638 106.635 102.417 97.8478C102.417 97.8478 112.246 101.907 117.055 106.53C117.055 106.53 127.394 94.6802 147.028 96.44C147.028 96.44 146.354 86.7376 148.189 80.9534C148.189 80.9534 156.135 87.1479 159.574 101.016C159.574 101.016 173.084 108.876 180.171 121.078C172.271 138.324 150.78 161.789 115.348 164.37Z" fill="#F5DEB3"/>
<path d="M137.704 127.951C138.422 124.046 135.102 120.148 130.289 119.245C125.476 118.343 120.992 120.776 120.274 124.682C119.556 128.587 122.875 132.485 127.688 133.387C132.502 134.29 136.986 131.856 137.704 127.951Z" fill="#231F20"/>
<path d="M122.271 125.277C122.864 122.063 126.558 120.056 130.519 120.796C134.481 121.535 137.223 124.749 136.63 127.964C136.037 131.179 132.343 133.185 128.382 132.446C124.409 131.707 121.679 128.503 122.271 125.277Z" fill="white"/>
<path d="M133.296 125.218C134.399 127.858 133.981 130.568 132.355 131.261C130.728 131.953 128.509 130.381 127.394 127.741C126.291 125.101 126.709 122.391 128.335 121.699C129.973 121.006 132.181 122.579 133.296 125.218Z" fill="#231F20"/>
<path d="M127.592 126.861C128.49 126.861 129.218 126.126 129.218 125.219C129.218 124.312 128.49 123.576 127.592 123.576C126.694 123.576 125.965 124.312 125.965 125.219C125.965 126.126 126.694 126.861 127.592 126.861Z" fill="white"/>
<path d="M155.929 120.542C158.631 116.42 158.163 111.3 154.884 109.108C151.605 106.915 146.755 108.48 144.053 112.602C141.351 116.724 141.819 121.843 145.098 124.036C148.378 126.228 153.227 124.664 155.929 120.542Z" fill="#231F20"/>
<path d="M154.787 120.403C157.015 117.005 156.631 112.786 153.929 110.98C151.228 109.174 147.232 110.464 145.004 113.863C142.776 117.261 143.16 121.48 145.862 123.286C148.563 125.092 152.56 123.802 154.787 120.403Z" fill="white"/>
<path d="M151.193 122.466C152.823 121.767 153.244 119.059 152.134 116.416C151.023 113.774 148.802 112.199 147.172 112.897C145.541 113.596 145.12 116.305 146.231 118.947C147.341 121.589 149.563 123.165 151.193 122.466Z" fill="#231F20"/>
<path d="M147.457 115.505C146.806 114.871 145.784 114.895 145.157 115.54C144.529 116.197 144.552 117.229 145.191 117.863C145.842 118.497 146.864 118.473 147.492 117.828C148.119 117.171 148.107 116.126 147.457 115.505Z" fill="white"/>
<path d="M140.871 136.446C140.871 136.446 143.31 131.519 149.816 132.222C149.816 132.222 150.165 135.273 147.725 136.915L151.094 142.312C151.094 142.312 158.297 140.552 159.923 130.111C159.923 130.111 161.433 138.91 151.442 144.659C140.058 150.76 133.552 144.424 133.552 144.424C133.552 144.424 141.916 149.703 149.119 143.368L146.447 137.854C146.447 137.854 142.962 138.91 140.871 136.446Z" fill="#231F20"/>
<path d="M123.712 147.24C118.286 149.117 114.104 148.636 111.792 148.049C112.269 151.158 112.815 153.986 113.337 156.391C116.869 156.414 123.061 155.922 126.267 152.519C130.914 147.592 126.848 145.949 123.712 147.24Z" fill="#A29172"/>
<path d="M124.838 144.026C130.461 140.271 126.86 137.749 123.514 138.3C116.544 139.039 112.152 136.775 110.572 135.754C110.7 138.899 110.979 141.972 111.351 144.882C114.778 145.704 120.958 146.63 124.838 144.026Z" fill="#A29172"/>
<path d="M175.791 114.871C174.884 116.595 172.597 119.916 167.577 122.403C164.836 123.576 163.325 127.143 169.238 127.283C173.665 127.389 178.16 123.177 180.158 121.042C178.88 118.848 177.382 116.783 175.791 114.871Z" fill="#A29172"/>
<path d="M174.014 112.841C172.189 110.858 170.319 109.099 168.53 107.573C168.019 109.474 166.509 113.205 162.199 116.736C159.782 118.496 159.097 122.321 164.905 121.124C169.098 120.256 172.469 115.446 174.014 112.841Z" fill="#A29172"/>
<path d="M129.984 108.054C129.984 108.054 131.727 110.166 133.121 107.115C134.166 104.839 131.564 100.452 130.193 98.3865C128.195 99.0789 126.417 99.8884 124.861 100.721C126.023 101.836 128.648 104.628 129.984 108.054Z" fill="#A29172"/>
<path d="M134.771 105.59C134.771 105.59 135.84 108.125 138.047 105.602C139.65 103.772 138.524 99.0437 137.792 96.6035C135.828 96.8618 133.993 97.2489 132.308 97.7298C133.168 99.384 134.515 102.399 134.771 105.59Z" fill="#A29172"/>
<path d="M19.7026 60.6906C19.7026 60.6906 21.875 58.192 24.9651 57.7222L25.2788 60.5383C25.2788 60.5383 21.7124 61.6292 21.0966 63.6705C21.0966 63.6588 20.0163 63.1896 19.7026 60.6906Z" fill="white"/>
<path d="M27.1384 57.5586L27.4522 60.3741C27.4522 60.3741 35.6655 58.1801 41.8574 57.4059C41.8574 57.4059 33.1796 56.1506 27.1384 57.5586Z" fill="white"/>
<path opacity="0.53" d="M114.964 164.017C116.3 163.911 117.601 163.771 118.891 163.606L119.065 163.548C110.701 140.318 114.883 120.138 114.883 120.138C105.822 109.579 102.417 97.8472 102.417 97.8472C102.65 106.635 111.502 120.49 111.502 120.49C107.843 139.907 114.964 164.017 114.964 164.017Z" fill="#9C8C6D" fill-opacity="0.77"/>
<path d="M118.833 111.926C118.833 111.926 118.484 109.321 117.404 106.154C117.171 106.388 117.055 106.529 117.055 106.529C112.246 101.906 102.417 97.8472 102.417 97.8472C102.417 97.8472 116.974 105.825 118.833 111.926Z" fill="#36322F"/>
<path d="M157.169 103.713C157.169 103.713 174.793 118.343 173.667 132.457C177.035 127.412 178.476 124.491 180.171 121.077C173.086 108.875 159.574 101.015 159.574 101.015C156.136 87.1472 148.189 80.9526 148.189 80.9526C148.189 80.9526 154.381 87.0534 157.169 103.713Z" fill="#A29172"/>
<path d="M92.9966 82.9467C92.9966 82.9467 93.496 80.3303 95.8194 80.6004C98.143 80.8701 102.314 82.7473 102.894 88.7071C102.894 88.7188 99.8392 83.0876 92.9966 82.9467Z" fill="#231F20"/>
</g>
</g>
</g>
<defs>
<clipPath id="clip0_123_2">
<rect width="202" height="170" fill="white"/>
</clipPath>
</defs>
</svg>
