<svg width="62" height="52" viewBox="0 0 62 52" fill="none" xmlns="http://www.w3.org/2000/svg">
<g clip-path="url(#clip0_115_56)">
<mask id="mask0_115_56" style="mask-type:luminance" maskUnits="userSpaceOnUse" x="0" y="0" width="62" height="52">
<path d="M62 0H0V52H62V0Z" fill="white"/>
</mask>
<g mask="url(#mask0_115_56)">
<path d="M33.7633 51.9641C48.0208 51.9641 59.5788 40.3316 59.5788 25.9821C59.5788 11.6326 48.0208 0 33.7633 0C19.5058 0 7.94775 11.6326 7.94775 25.9821C7.94775 40.3316 19.5058 51.9641 33.7633 51.9641Z" fill="#231F20"/>
<path d="M33.7635 49.9759C46.93 49.9759 57.6038 39.2335 57.6038 25.9819C57.6038 12.7305 46.93 1.98804 33.7635 1.98804C20.5969 1.98804 9.92334 12.7305 9.92334 25.9819C9.92334 39.2335 20.5969 49.9759 33.7635 49.9759Z" fill="#E99E22"/>
<path d="M5.04897 18.3237C5.04897 18.3237 3.90796 25.9784 7.52 31.5301C7.52 31.5301 7.331 36.6978 10.2762 38.0364C10.2762 38.0364 9.99101 37.3653 10.3725 36.3138C10.3725 36.3138 11.132 38.4204 13.414 38.8008C13.414 38.8008 12.9398 37.8426 13.1288 36.6009C13.1288 36.6009 13.5103 38.1333 15.6961 38.7075C15.6961 38.7075 16.0776 37.656 15.885 36.6978C15.885 36.6978 17.9781 38.6106 22.7311 38.3235C22.7311 38.3235 19.8786 41.0975 18.6413 45.691C18.6413 45.691 23.4835 50.2881 33.4745 50.1877C42.9842 50.0908 49.734 46.3119 53.3959 39.6118C53.3959 39.6118 50.4008 34.1104 45.8367 32.8651C45.8367 32.8651 44.8383 29.3948 45.8831 27.4821C46.3573 28.3434 47.5482 30.5683 50.194 31.4942C53.2032 30.048 57.4677 27.0801 61.9999 20.9973C61.9999 20.9973 54.6798 9.89755 47.452 7.2168C47.452 7.2168 45.4552 7.60076 42.8166 10.7588C42.8166 10.7588 38.8943 9.53865 33.4745 9.89755C33.4745 9.89755 32.2372 8.55897 30.1477 7.60077C27.6767 7.4106 22.207 11.2613 20.7343 17.1718C20.7379 17.1754 6.5715 14.2111 5.04897 18.3237Z" fill="#231F20"/>
<path d="M32.4086 10.12C32.4086 10.12 31.0536 8.541 29.9126 8.25391C29.9126 8.25391 24.0649 8.82809 21.4014 17.2723L23.1129 17.4625C23.1129 17.4625 24.4429 13.9205 27.0102 11.8175C27.0137 11.8175 28.7003 10.6225 32.4086 10.12Z" fill="#A45125"/>
<path d="M6.47531 21.2915C6.47531 21.2915 7.99782 23.9723 10.3726 24.3526C10.3726 24.3526 9.99107 26.0752 10.7541 28.372L7.90157 30.4786C7.90157 30.4786 5.23799 25.9819 6.47531 21.2915Z" fill="#A45125"/>
<path d="M45.0067 33.827C45.0067 33.827 43.6339 29.3843 45.103 26.2657C47.9555 24.256 46.6719 18.7295 46.0301 17.7964C48.4548 20.5238 47.5276 25.2609 46.6006 26.6246C47.4813 28.7778 49.8204 30.0374 50.6191 30.1881C50.6191 30.1881 57.8468 26.6963 60.5066 20.9544C60.5066 20.9544 54.8016 11.7207 47.7666 8.17871C47.7666 8.17871 44.1545 8.7529 41.0167 16.8885C41.0167 16.8885 41.4446 13.5618 42.6819 11.5521C42.6819 11.5521 34.4808 8.89647 27.8023 12.3883C27.8023 12.3883 25.2814 14.423 23.9978 18.227C22.19 18.2019 20.1005 17.556 16.5811 17.6529C16.5811 17.6529 16.1069 21.8624 11.8281 24.3529C11.8281 24.3529 11.1613 25.6915 11.7318 28.4691C11.7318 28.4691 17.2479 32.1045 20.5747 31.7241C20.5747 31.7241 23.3809 31.0063 28.2302 26.3662C28.2302 26.3662 30.0844 25.3147 28.847 26.8435C28.847 26.8435 25.3278 31.2468 20.3857 33.1596C20.3857 33.1596 13.6359 31.053 11.3539 29.1402C11.3539 29.1402 9.68866 30.3352 8.83291 31.7707C8.69026 32.1547 8.83291 35.2625 9.54601 36.0305C9.54601 36.0305 9.54601 34.595 10.4018 33.8306C10.4018 33.8306 10.4981 34.8821 12.017 36.3176C12.017 36.3176 11.9208 35.5532 12.5876 34.6919C12.5876 34.6919 13.6323 36.0305 14.8696 36.7016C14.8696 36.7016 14.4881 35.9372 14.9659 34.595C14.9659 34.595 15.8288 37.5808 23.142 37.2758C23.142 37.2758 29.2037 36.9636 34.2669 34.5233C34.2669 34.5233 34.4095 35.4563 33.4111 36.1022C33.4111 36.1022 28.1339 38.1837 24.1404 38.3273C24.1404 38.3273 21.2165 42.1312 20.3607 45.7917C20.3607 45.7917 27.4636 51.896 39.1162 49.6675C48.5 47.5 51 41 51 41C51 41 48.7614 34.2828 45.0067 33.827Z" fill="#A45125"/>
<path d="M26.6855 13.9958C27.3987 13.9958 28.3435 14.8392 28.3435 15.9158C28.3435 17.2113 26.7033 18.6971 26.7033 18.6971L24.5283 18.2664C24.5283 18.2664 25.3662 15.9337 27.4521 14.57C27.4521 14.57 27.2025 14.1932 26.6855 13.9958Z" fill="#231F20"/>
<path d="M27.7015 15.0186C27.7015 15.0186 28.0581 15.503 27.9868 16.0772C27.9155 16.6514 27.131 17.6921 26.5605 18.1586L25.1343 17.9074C25.1343 17.9074 26.1861 15.5389 27.7015 15.0186Z" fill="white"/>
<path d="M30.7681 19.3431C30.7681 19.3431 31.6239 15.0008 34.5834 13.7089C35.7957 13.3141 37.1507 13.7447 37.329 15.5032C37.329 15.5032 36.6158 13.8883 35.3678 14.283C35.3678 14.283 37.7568 14.8213 36.5445 19.9173C34.726 20.8503 31.6952 20.5991 30.7681 19.3431Z" fill="#231F20"/>
<path d="M31.3032 19.1637C31.3032 19.1637 32.5869 14.6061 34.548 14.4984C36.5091 14.3908 36.9013 17.6565 36.1525 19.4508C36.1525 19.4508 33.7992 20.8863 31.3032 19.1637Z" fill="white"/>
<path d="M35.4858 15.9839C34.4803 15.7076 33.3963 16.4864 33.0612 17.7208C32.8258 18.5929 33.0291 19.4614 33.5211 19.9925C35.033 20.1324 36.1526 19.4506 36.1526 19.4506C36.47 18.6862 36.584 17.6562 36.4557 16.734C36.2275 16.3679 35.8959 16.0952 35.4858 15.9839Z" fill="#231F20"/>
<path d="M27.6623 16.0987C27.024 15.9229 26.3394 16.4181 26.1255 17.2004C26.0435 17.5055 26.0471 17.8105 26.1184 18.0796L26.5605 18.1586C27.0811 17.7315 27.78 16.8272 27.9511 16.2351C27.8656 16.1741 27.7693 16.1274 27.6623 16.0987Z" fill="#231F20"/>
<path d="M26.582 16.2567C26.582 16.0091 26.7816 15.8081 27.0277 15.8081C27.2737 15.8081 27.4734 16.0091 27.4734 16.2567C27.4734 16.5043 27.2737 16.7053 27.0277 16.7053C26.7816 16.7053 26.582 16.5043 26.582 16.2567Z" fill="white"/>
<path d="M33.6348 16.4757C33.6348 16.1096 33.9308 15.8118 34.2945 15.8118C34.6582 15.8118 34.9541 16.1096 34.9541 16.4757C34.9541 16.8417 34.6582 17.1396 34.2945 17.1396C33.9308 17.1396 33.6348 16.8417 33.6348 16.4757Z" fill="white"/>
<path d="M17.8854 22.153C17.8854 22.153 21.3085 21.5788 24.9205 23.6854C24.9205 23.6854 21.2835 21.7475 17.7892 22.8241C17.7892 22.8241 16.7444 22.3432 17.8854 22.153Z" fill="#231F20"/>
<path d="M17.3398 23.3265C17.3398 23.3265 20.7842 23.7643 23.6439 26.8255C23.6439 26.8255 20.7129 23.9186 17.0581 23.9402C17.0581 23.9402 16.1917 23.1794 17.3398 23.3265Z" fill="#231F20"/>
<path d="M16.6944 24.6436C16.6944 24.6436 19.4115 25.6305 21.1765 28.6414C21.1765 28.6414 19.3223 25.7417 16.3521 25.0921C16.3557 25.0921 15.7923 24.3134 16.6944 24.6436Z" fill="#231F20"/>
<path d="M5.25223 22.1889C5.25223 22.1889 2.69565 21.6147 0 23.7213C0 23.7213 2.71348 21.7834 5.32358 22.86C5.32358 22.86 6.10442 22.3791 5.25223 22.1889Z" fill="#231F20"/>
<path d="M5.0524 23.5777C5.0524 23.5777 2.48155 24.0155 0.345703 27.0767C0.345703 27.0767 2.53503 24.1699 5.26275 24.1914C5.26275 24.1914 5.90817 23.4306 5.0524 23.5777Z" fill="#231F20"/>
<path d="M5.53373 24.8948C5.53373 24.8948 3.50485 25.8817 2.18555 28.8926C2.18555 28.8926 3.56903 25.993 5.78689 25.3434C5.78689 25.3434 6.20762 24.5646 5.53373 24.8948Z" fill="#231F20"/>
<path d="M37.8533 41.485C35.8565 37.4657 33.004 38.1368 33.004 38.1368C30.0552 40.1464 30.3404 42.1561 30.3404 42.1561C29.4847 40.8175 29.8662 38.8078 29.8662 38.8078C27.4879 41.2015 27.6804 45.027 27.6804 45.027C26.7284 43.6885 26.8247 41.6788 26.8247 41.6788C25.5873 44.094 25.6302 47.4063 25.7193 48.8275C28.9284 49.9866 33.4105 50.7869 38.898 49.6672C39.2938 49.5883 39.6718 49.495 40.0391 49.3981C39.8501 47.7652 39.301 44.399 37.8533 41.485Z" fill="white"/>
<path d="M8.67889 29.9044C6.8069 26.7248 6.91029 23.5955 7.09572 22.1779C6.69282 21.6791 6.47531 21.2915 6.47531 21.2915C5.23799 25.9819 7.90157 30.4786 7.90157 30.4786L8.67889 29.9044Z" fill="#E07343"/>
<path d="M11.1356 29.1401C11.1356 29.1401 9.47039 30.3352 8.61463 31.7707C8.47203 32.1546 8.61463 35.2625 9.32779 36.0304C9.32779 36.0304 9.32779 34.5949 10.1835 33.8305C10.1835 33.8305 10.2619 34.6955 11.4101 35.9263C10.7504 34.3114 10.8503 32.4417 10.8503 32.4417L9.32779 33.6368C9.13879 32.919 9.32779 31.9609 9.32779 31.9609C9.80204 31.0529 11.1356 29.9512 11.1356 29.9512C12.2873 30.6331 14.6228 31.2898 15.8672 31.6127C14.0665 30.8879 12.1553 29.9942 11.1356 29.1401Z" fill="#E07343"/>
<path d="M21.4048 17.2723L21.8078 17.319C22.1429 16.4325 23.6869 13.0161 26.1579 10.9095C28.8357 8.62716 29.8662 8.8999 29.8662 8.8999C29.8662 8.8999 30.7897 8.86761 31.9058 9.59249C31.4066 9.10442 30.6185 8.43336 29.9126 8.25391C29.9126 8.25391 24.0648 8.82809 21.4048 17.2723Z" fill="#E07343"/>
<path d="M11.46 28.1927C11.4778 28.2824 11.4956 28.3757 11.5135 28.469C11.5135 28.469 17.0296 32.1044 20.3564 31.7239C20.3564 31.7239 23.1625 31.0062 28.0119 26.3661C28.0119 26.3661 29.6164 25.4545 28.8427 26.5635C30.1441 26.3697 32.9075 28.853 32.9075 28.853C32.2907 25.5981 31.0997 23.9724 29.3419 24.019C28.2936 24.0477 27.5341 25.695 27.5341 25.695C25.1558 28.5659 20.0212 30.816 20.0212 30.816C16.5019 31.3436 11.4635 28.1855 11.4635 28.1855L11.46 28.1927Z" fill="#772F17"/>
<path d="M14.7476 34.595C14.7476 34.595 15.6105 37.5808 22.9237 37.2758C22.9237 37.2758 28.9853 36.9635 34.0486 34.5233C34.0486 34.5233 34.1056 34.9072 33.8846 35.3558C39.5397 34.0065 42.9877 37.5629 42.9877 37.5629C41.7504 36.4145 38.3274 36.7985 38.3274 36.7985C38.3274 36.7985 41.4652 37.6598 43.462 41.2951C44.7385 43.617 44.849 45.8204 45.0594 47.6111C49.9372 45.1529 51.8272 41.8226 51.8272 41.8226C51.8272 41.8226 48.5466 34.2864 44.792 33.8306C44.792 33.8306 43.4192 29.3879 44.8882 26.2693C47.7408 24.2596 46.4571 18.7331 45.8153 17.8C48.24 20.5274 47.3129 25.2645 46.3858 26.6282C47.2665 28.7814 49.6056 30.041 50.4043 30.1917C50.4043 30.1917 56.1094 27.432 59.2507 22.7883C56.5764 25.2537 53.2067 26.4918 52.1161 27.2239C50.6896 28.182 48.978 28.7562 49.3596 26.0755C49.7411 23.3947 48.3148 20.4305 48.3148 20.4305C49.2669 20.9078 49.7411 21.2918 49.7411 21.2918C48.7891 19.2821 46.6033 16.7952 45.7476 16.7952C44.8918 16.7952 44.5103 18.2306 43.7508 22.4401C42.9913 26.6497 37.5715 31.5303 31.1996 33.9239C24.8277 36.3176 19.8857 35.2625 19.8857 35.2625C20.8377 35.9336 21.5972 36.314 21.5972 36.314C16.9333 36.5078 14.7476 34.595 14.7476 34.595Z" fill="#772F17"/>
<path d="M33.3353 50.2416C33.3353 50.2416 31.77 43.5774 33.043 36.8558C33.043 36.8558 30.6575 31.8926 30.5791 28.8494C30.5791 28.8494 34.077 29.8901 35.7493 31.4907C35.7493 31.4907 39.315 27.9917 44.3426 28.7095C44.3426 28.7095 44.339 25.3289 44.9737 23.3264C44.9737 23.3264 48.3932 25.5693 49.5877 30.371C49.5877 30.371 52.1873 31.4369 55.7528 35.5997C53.9698 41.9876 44.1037 50.9342 33.3353 50.2416Z" fill="#231F20"/>
<path d="M35.4038 50.2778C35.4038 50.2778 33.1003 42.7953 34.2235 36.8561C34.2235 36.8561 31.5029 32.6178 31.4351 29.9299C31.4351 29.9299 34.4517 31.1716 35.9279 32.5856C35.9279 32.5856 39.1013 28.961 45.1273 29.4993C45.1273 29.4993 44.9205 26.5315 45.4839 24.7622C45.4839 24.7622 47.9228 26.657 48.9782 30.8989C48.9782 30.8989 53.1249 33.3033 55.3001 37.0355C52.8754 42.3109 46.2791 49.4883 35.4038 50.2778Z" fill="#F5DEB3"/>
<path d="M42.2655 39.1379C42.4859 37.9434 41.467 36.7511 39.9897 36.475C38.5124 36.1989 37.1361 36.9434 36.9157 38.1379C36.6953 39.3325 37.7142 40.5247 39.1915 40.8008C40.6688 41.077 42.0451 40.3324 42.2655 39.1379Z" fill="#231F20"/>
<path d="M37.5287 38.32C37.7106 37.3368 38.8445 36.7231 40.0604 36.9492C41.2763 37.1753 42.1178 38.1586 41.9359 39.1419C41.754 40.1252 40.6202 40.7388 39.4043 40.5128C38.1848 40.2867 37.3469 39.3069 37.5287 38.32Z" fill="white"/>
<path d="M40.9126 38.3021C41.2513 39.1095 41.123 39.9385 40.6238 40.1503C40.1246 40.362 39.4435 39.8811 39.1012 39.0737C38.7625 38.2662 38.8908 37.4372 39.39 37.2255C39.8928 37.0137 40.5703 37.4946 40.9126 38.3021Z" fill="#231F20"/>
<path d="M39.1618 38.8047C39.4375 38.8047 39.661 38.5797 39.661 38.3022C39.661 38.0248 39.4375 37.7998 39.1618 37.7998C38.8861 37.7998 38.6626 38.0248 38.6626 38.3022C38.6626 38.5797 38.8861 38.8047 39.1618 38.8047Z" fill="white"/>
<path d="M47.8594 36.8716C48.6888 35.6107 48.5452 34.0448 47.5387 33.3742C46.5322 32.7035 45.0438 33.182 44.2144 34.4429C43.385 35.7039 43.5286 37.2697 44.5352 37.9403C45.5417 38.611 47.03 38.1325 47.8594 36.8716Z" fill="#231F20"/>
<path d="M47.509 36.8293C48.1927 35.7898 48.0748 34.4993 47.2456 33.9468C46.4164 33.3943 45.1899 33.7891 44.5062 34.8286C43.8224 35.868 43.9403 37.1586 44.7695 37.7111C45.5987 38.2635 46.8252 37.8688 47.509 36.8293Z" fill="white"/>
<path d="M46.4057 37.4602C46.9061 37.2464 47.0354 36.418 46.6945 35.6097C46.3537 34.8016 45.6718 34.3196 45.1715 34.5333C44.6711 34.7471 44.5419 35.5755 44.8827 36.3837C45.2236 37.1919 45.9055 37.6739 46.4057 37.4602Z" fill="#231F20"/>
<path d="M45.259 35.3308C45.0593 35.1371 44.7456 35.1442 44.5531 35.3416C44.3605 35.5426 44.3676 35.8583 44.5637 36.0522C44.7634 36.246 45.0772 36.2388 45.2697 36.0414C45.4623 35.8404 45.4587 35.521 45.259 35.3308Z" fill="white"/>
<path d="M43.2376 41.7365C43.2376 41.7365 43.9863 40.2292 45.9831 40.4445C45.9831 40.4445 46.0901 41.3776 45.3413 41.88L46.3753 43.5308C46.3753 43.5308 48.5861 42.9925 49.0853 39.7986C49.0853 39.7986 49.5488 42.4901 46.4823 44.2485C42.988 46.1147 40.9912 44.1768 40.9912 44.1768C40.9912 44.1768 43.5585 45.7916 45.7692 43.8538L44.9491 42.1671C44.9491 42.1671 43.8794 42.4901 43.2376 41.7365Z" fill="#231F20"/>
<path d="M37.9709 45.0381C36.3057 45.6123 35.0221 45.4651 34.3125 45.2857C34.4587 46.2367 34.6263 47.1016 34.7867 47.8373C35.8707 47.8444 37.7712 47.6937 38.7554 46.653C40.1816 45.1457 38.9337 44.6433 37.9709 45.0381Z" fill="#A29172"/>
<path d="M38.3167 44.055C40.0425 42.9065 38.9372 42.135 37.9102 42.3037C35.7708 42.5297 34.423 41.8372 33.938 41.5249C33.9773 42.4867 34.0629 43.4269 34.177 44.3169C35.2288 44.5682 37.1258 44.8517 38.3167 44.055Z" fill="#A29172"/>
<path d="M53.9558 35.137C53.6773 35.6645 52.9752 36.6801 51.4346 37.4409C50.5932 37.7997 50.1296 38.8907 51.9444 38.9338C53.3033 38.9661 54.6828 37.6777 55.2961 37.0246C54.9039 36.3535 54.4441 35.7219 53.9558 35.137Z" fill="#A29172"/>
<path d="M53.4102 34.5161C52.8501 33.9096 52.2761 33.3713 51.7269 32.9048C51.5701 33.4861 51.1066 34.6273 49.7837 35.7075C49.0421 36.2458 48.8317 37.4158 50.6145 37.0497C51.9015 36.7841 52.9359 35.3128 53.4102 34.5161Z" fill="#A29172"/>
<path d="M39.8961 33.0518C39.8961 33.0518 40.431 33.6978 40.8588 32.7647C41.1797 32.0685 40.381 30.7264 39.9603 30.0947C39.347 30.3065 38.8014 30.5541 38.3237 30.8089C38.6802 31.1498 39.486 32.0039 39.8961 33.0518Z" fill="#A29172"/>
<path d="M41.3654 32.2982C41.3654 32.2982 41.6934 33.0734 42.3709 32.3018C42.863 31.742 42.5171 30.2957 42.2925 29.5493C41.6898 29.6283 41.1265 29.7467 40.6094 29.8938C40.8733 30.3998 41.2869 31.3221 41.3654 32.2982Z" fill="#A29172"/>
<path d="M6.04736 18.5642C6.04736 18.5642 6.71412 17.7999 7.66257 17.6562L7.75887 18.5176C7.75887 18.5176 6.66421 18.8513 6.47522 19.4757C6.47522 19.4721 6.14362 19.3286 6.04736 18.5642Z" fill="white"/>
<path d="M8.32959 17.6062L8.42589 18.4674C8.42589 18.4674 10.9468 17.7963 12.8473 17.5595C12.8473 17.5595 10.1838 17.1755 8.32959 17.6062Z" fill="white"/>
<path opacity="0.53" d="M35.286 50.1699C35.6961 50.1375 36.0954 50.0945 36.4912 50.0442L36.5447 50.0263C33.9775 42.9207 35.2611 36.7482 35.2611 36.7482C32.4799 33.5184 31.4351 29.9297 31.4351 29.9297C31.5064 32.6176 34.2234 36.8558 34.2234 36.8558C33.1003 42.7951 35.286 50.1699 35.286 50.1699Z" fill="#9C8C6D" fill-opacity="0.77"/>
<path d="M36.4734 34.2361C36.4734 34.2361 36.3664 33.4394 36.0348 32.4705C35.9635 32.5422 35.9279 32.5853 35.9279 32.5853C34.4517 31.1713 31.4351 29.9297 31.4351 29.9297C31.4351 29.9297 35.9029 32.37 36.4734 34.2361Z" fill="#36322F"/>
<path d="M48.2401 31.724C48.2401 31.724 53.6492 36.1991 53.3036 40.5163C54.3374 38.9731 54.7797 38.0796 55.3 37.0353C53.1253 33.3031 48.9782 30.8986 48.9782 30.8986C47.9228 26.6568 45.4839 24.762 45.4839 24.762C45.4839 24.762 47.3844 26.6281 48.2401 31.724Z" fill="#A29172"/>
<path d="M28.5435 25.3719C28.5435 25.3719 28.6968 24.5716 29.4099 24.6542C30.1231 24.7367 31.4032 25.3109 31.5814 27.1339C31.5814 27.1375 30.6437 25.415 28.5435 25.3719Z" fill="#231F20"/>
</g>
</g>
<defs>
<clipPath id="clip0_115_56">
<rect width="62" height="52" fill="white"/>
</clipPath>
</defs>
</svg>
