<svg width="62" height="52" viewBox="0 0 62 52" fill="none" xmlns="http://www.w3.org/2000/svg">
<g clip-path="url(#clip0_1_425)">
<path d="M33.7634 51.9641C48.0209 51.9641 59.5789 40.3316 59.5789 25.9821C59.5789 11.6326 48.0209 0 33.7634 0C19.5059 0 7.94788 11.6326 7.94788 25.9821C7.94788 40.3316 19.5059 51.9641 33.7634 51.9641Z" fill="#231F20"/>
<path d="M33.7634 49.9759C46.9299 49.9759 57.6037 39.2335 57.6037 25.9819C57.6037 12.7305 46.9299 1.98804 33.7634 1.98804C20.5968 1.98804 9.92328 12.7305 9.92328 25.9819C9.92328 39.2335 20.5968 49.9759 33.7634 49.9759Z" fill="#EC2224"/>
<path d="M5.04903 18.3237C5.04903 18.3237 3.90802 25.9784 7.52006 31.5301C7.52006 31.5301 7.33106 36.6978 10.2763 38.0364C10.2763 38.0364 9.99107 37.3653 10.3726 36.3138C10.3726 36.3138 11.1321 38.4204 13.4141 38.8008C13.4141 38.8008 12.9399 37.8426 13.1289 36.6009C13.1289 36.6009 13.5104 38.1333 15.6962 38.7075C15.6962 38.7075 16.0777 37.656 15.8851 36.6978C15.8851 36.6978 17.9782 38.6106 22.7312 38.3235C22.7312 38.3235 19.8787 41.0975 18.6414 45.691C18.6414 45.691 23.4836 50.2881 33.4746 50.1877C42.9843 50.0908 49.7341 46.3119 53.396 39.6118C53.396 39.6118 50.4009 34.1104 45.8368 32.8651C45.8368 32.8651 44.8384 29.3948 45.8832 27.4821C46.3574 28.3434 47.5483 30.5683 50.1941 31.4942C53.2033 30.048 57.4678 27.0801 62 20.9973C62 20.9973 54.6799 9.89755 47.4521 7.2168C47.4521 7.2168 45.4553 7.60076 42.8167 10.7588C42.8167 10.7588 38.8944 9.53865 33.4746 9.89755C33.4746 9.89755 32.2373 8.55897 30.1478 7.60077C27.6768 7.4106 22.2071 11.2613 20.7344 17.1718C20.738 17.1754 6.57156 14.2111 5.04903 18.3237Z" fill="#231F20"/>
<path d="M32.4084 10.12C32.4084 10.12 31.0534 8.541 29.9124 8.25391C29.9124 8.25391 24.0647 8.82809 21.4012 17.2723L23.1127 17.4625C23.1127 17.4625 24.4427 13.9205 27.01 11.8175C27.0135 11.8175 28.7001 10.6225 32.4084 10.12Z" fill="#A45125"/>
<path d="M6.47531 21.2915C6.47531 21.2915 7.99782 23.9723 10.3726 24.3526C10.3726 24.3526 9.99107 26.0752 10.7541 28.372L7.90157 30.4786C7.90157 30.4786 5.23799 25.9819 6.47531 21.2915Z" fill="#A45125"/>
<path d="M45.0068 33.827C45.0068 33.827 43.634 29.3843 45.1031 26.2657C47.9556 24.256 46.672 18.7295 46.0302 17.7964C48.4549 20.5238 47.5277 25.2609 46.6007 26.6246C47.4814 28.7778 49.8205 30.0374 50.6192 30.1881C50.6192 30.1881 57.8469 26.6963 60.5067 20.9544C60.5067 20.9544 54.8017 11.7207 47.7667 8.17871C47.7667 8.17871 44.1546 8.7529 41.0168 16.8885C41.0168 16.8885 41.4447 13.5618 42.682 11.5521C42.682 11.5521 34.4809 8.89647 27.8024 12.3883C27.8024 12.3883 25.2815 14.423 23.9979 18.227C22.1901 18.2019 20.1006 17.556 16.5812 17.6529C16.5812 17.6529 16.107 21.8624 11.8282 24.3529C11.8282 24.3529 11.1614 25.6915 11.7319 28.4691C11.7319 28.4691 17.248 32.1045 20.5748 31.7241C20.5748 31.7241 23.381 31.0063 28.2303 26.3662C28.2303 26.3662 30.0845 25.3147 28.8471 26.8435C28.8471 26.8435 25.3279 31.2468 20.3858 33.1596C20.3858 33.1596 13.636 31.053 11.354 29.1402C11.354 29.1402 9.68879 30.3352 8.83304 31.7707C8.69039 32.1547 8.83304 35.2625 9.54614 36.0305C9.54614 36.0305 9.54614 34.595 10.4019 33.8306C10.4019 33.8306 10.4982 34.8821 12.0171 36.3176C12.0171 36.3176 11.9209 35.5532 12.5877 34.6919C12.5877 34.6919 13.6324 36.0305 14.8697 36.7016C14.8697 36.7016 14.4882 35.9372 14.966 34.595C14.966 34.595 15.8289 37.5808 23.1421 37.2758C23.1421 37.2758 29.2038 36.9636 34.267 34.5233C34.267 34.5233 34.4096 35.4563 33.4112 36.1022C33.4112 36.1022 28.134 38.1837 24.1405 38.3273C24.1405 38.3273 21.2166 42.1312 20.3608 45.7917C20.3608 45.7917 27.4637 51.896 39.1163 49.6675C48.626 47.848 52.0489 41.819 52.0489 41.819C52.0489 41.819 48.7615 34.2828 45.0068 33.827Z" fill="#A45125"/>
<path d="M26.6855 13.9958C27.3987 13.9958 28.3435 14.8392 28.3435 15.9158C28.3435 17.2113 26.7033 18.6971 26.7033 18.6971L24.5283 18.2664C24.5283 18.2664 25.3662 15.9337 27.4521 14.57C27.4521 14.57 27.2025 14.1932 26.6855 13.9958Z" fill="#231F20"/>
<path d="M27.7017 15.0186C27.7017 15.0186 28.0583 15.503 27.987 16.0772C27.9157 16.6514 27.1312 17.6921 26.5607 18.1586L25.1345 17.9074C25.1345 17.9074 26.1863 15.5389 27.7017 15.0186Z" fill="white"/>
<path d="M30.7682 19.3431C30.7682 19.3431 31.624 15.0008 34.5835 13.7089C35.7958 13.3141 37.1508 13.7447 37.3291 15.5032C37.3291 15.5032 36.6159 13.8883 35.3679 14.283C35.3679 14.283 37.7569 14.8213 36.5446 19.9173C34.7261 20.8503 31.6953 20.5991 30.7682 19.3431Z" fill="#231F20"/>
<path d="M31.3031 19.1637C31.3031 19.1637 32.5868 14.6061 34.5479 14.4984C36.509 14.3908 36.9012 17.6565 36.1524 19.4508C36.1524 19.4508 33.7991 20.8863 31.3031 19.1637Z" fill="white"/>
<path d="M35.4856 15.9839C34.4801 15.7076 33.3961 16.4864 33.061 17.7208C32.8256 18.5929 33.0289 19.4614 33.5209 19.9925C35.0328 20.1324 36.1524 19.4506 36.1524 19.4506C36.4698 18.6862 36.5838 17.6562 36.4555 16.734C36.2273 16.3679 35.8957 16.0952 35.4856 15.9839Z" fill="#231F20"/>
<path d="M27.6625 16.0987C27.0242 15.9229 26.3396 16.4181 26.1257 17.2004C26.0437 17.5055 26.0473 17.8105 26.1186 18.0796L26.5607 18.1586C27.0813 17.7315 27.7802 16.8272 27.9513 16.2351C27.8658 16.1741 27.7695 16.1274 27.6625 16.0987Z" fill="#231F20"/>
<path d="M26.5822 16.2567C26.5822 16.0091 26.7818 15.8081 27.0279 15.8081C27.2739 15.8081 27.4736 16.0091 27.4736 16.2567C27.4736 16.5043 27.2739 16.7053 27.0279 16.7053C26.7818 16.7053 26.5822 16.5043 26.5822 16.2567Z" fill="white"/>
<path d="M33.635 16.4757C33.635 16.1096 33.931 15.8118 34.2947 15.8118C34.6584 15.8118 34.9543 16.1096 34.9543 16.4757C34.9543 16.8417 34.6584 17.1396 34.2947 17.1396C33.931 17.1396 33.635 16.8417 33.635 16.4757Z" fill="white"/>
<path d="M17.8854 22.153C17.8854 22.153 21.3085 21.5788 24.9205 23.6854C24.9205 23.6854 21.2835 21.7475 17.7892 22.8241C17.7892 22.8241 16.7444 22.3432 17.8854 22.153Z" fill="#231F20"/>
<path d="M17.3399 23.3265C17.3399 23.3265 20.7843 23.7643 23.644 26.8255C23.644 26.8255 20.713 23.9186 17.0582 23.9402C17.0582 23.9402 16.1918 23.1794 17.3399 23.3265Z" fill="#231F20"/>
<path d="M16.6945 24.6436C16.6945 24.6436 19.4116 25.6305 21.1766 28.6414C21.1766 28.6414 19.3224 25.7417 16.3522 25.0921C16.3558 25.0921 15.7924 24.3134 16.6945 24.6436Z" fill="#231F20"/>
<path d="M5.25223 22.1889C5.25223 22.1889 2.69565 21.6147 0 23.7213C0 23.7213 2.71348 21.7834 5.32358 22.86C5.32358 22.86 6.10442 22.3791 5.25223 22.1889Z" fill="#231F20"/>
<path d="M5.05258 23.5777C5.05258 23.5777 2.48173 24.0155 0.345886 27.0767C0.345886 27.0767 2.53521 24.1699 5.26293 24.1914C5.26293 24.1914 5.90835 23.4306 5.05258 23.5777Z" fill="#231F20"/>
<path d="M5.53397 24.8948C5.53397 24.8948 3.50509 25.8817 2.18579 28.8926C2.18579 28.8926 3.56927 25.993 5.78713 25.3434C5.78713 25.3434 6.20786 24.5646 5.53397 24.8948Z" fill="#231F20"/>
<path d="M37.8532 41.485C35.8564 37.4657 33.0039 38.1368 33.0039 38.1368C30.0551 40.1464 30.3403 42.1561 30.3403 42.1561C29.4846 40.8175 29.8661 38.8078 29.8661 38.8078C27.4878 41.2015 27.6803 45.027 27.6803 45.027C26.7283 43.6885 26.8246 41.6788 26.8246 41.6788C25.5872 44.094 25.6301 47.4063 25.7192 48.8275C28.9283 49.9866 33.4104 50.7869 38.8979 49.6672C39.2937 49.5883 39.6717 49.495 40.039 49.3981C39.85 47.7652 39.3009 44.399 37.8532 41.485Z" fill="white"/>
<path d="M8.67889 29.9044C6.8069 26.7248 6.91029 23.5955 7.09572 22.1779C6.69282 21.6791 6.47531 21.2915 6.47531 21.2915C5.23799 25.9819 7.90157 30.4786 7.90157 30.4786L8.67889 29.9044Z" fill="#E07343"/>
<path d="M11.1357 29.1401C11.1357 29.1401 9.47045 30.3352 8.61469 31.7707C8.47209 32.1546 8.61469 35.2625 9.32785 36.0304C9.32785 36.0304 9.32785 34.5949 10.1836 33.8305C10.1836 33.8305 10.262 34.6955 11.4102 35.9263C10.7505 34.3114 10.8504 32.4417 10.8504 32.4417L9.32785 33.6368C9.13885 32.919 9.32785 31.9609 9.32785 31.9609C9.8021 31.0529 11.1357 29.9512 11.1357 29.9512C12.2874 30.6331 14.6229 31.2898 15.8673 31.6127C14.0666 30.8879 12.1554 29.9942 11.1357 29.1401Z" fill="#E07343"/>
<path d="M21.4047 17.2723L21.8077 17.319C22.1428 16.4325 23.6868 13.0161 26.1578 10.9095C28.8356 8.62716 29.8661 8.8999 29.8661 8.8999C29.8661 8.8999 30.7896 8.86761 31.9057 9.59249C31.4065 9.10442 30.6184 8.43336 29.9125 8.25391C29.9125 8.25391 24.0647 8.82809 21.4047 17.2723Z" fill="#E07343"/>
<path d="M11.4601 28.1927C11.4779 28.2824 11.4957 28.3757 11.5136 28.469C11.5136 28.469 17.0297 32.1044 20.3565 31.7239C20.3565 31.7239 23.1626 31.0062 28.012 26.3661C28.012 26.3661 29.6165 25.4545 28.8428 26.5635C30.1442 26.3697 32.9076 28.853 32.9076 28.853C32.2908 25.5981 31.0998 23.9724 29.342 24.019C28.2937 24.0477 27.5342 25.695 27.5342 25.695C25.1559 28.5659 20.0213 30.816 20.0213 30.816C16.502 31.3436 11.4636 28.1855 11.4636 28.1855L11.4601 28.1927Z" fill="#772F17"/>
<path d="M14.7477 34.595C14.7477 34.595 15.6106 37.5808 22.9238 37.2758C22.9238 37.2758 28.9854 36.9635 34.0487 34.5233C34.0487 34.5233 34.1057 34.9072 33.8847 35.3558C39.5398 34.0065 42.9878 37.5629 42.9878 37.5629C41.7505 36.4145 38.3275 36.7985 38.3275 36.7985C38.3275 36.7985 41.4653 37.6598 43.4621 41.2951C44.7386 43.617 44.8491 45.8204 45.0595 47.6111C49.9373 45.1529 51.8273 41.8226 51.8273 41.8226C51.8273 41.8226 48.5467 34.2864 44.7921 33.8306C44.7921 33.8306 43.4193 29.3879 44.8883 26.2693C47.7409 24.2596 46.4572 18.7331 45.8154 17.8C48.2401 20.5274 47.313 25.2645 46.3859 26.6282C47.2666 28.7814 49.6057 30.041 50.4044 30.1917C50.4044 30.1917 56.1095 27.432 59.2508 22.7883C56.5765 25.2537 53.2068 26.4918 52.1162 27.2239C50.6897 28.182 48.9781 28.7562 49.3597 26.0755C49.7412 23.3947 48.3149 20.4305 48.3149 20.4305C49.267 20.9078 49.7412 21.2918 49.7412 21.2918C48.7892 19.2821 46.6034 16.7952 45.7477 16.7952C44.8919 16.7952 44.5104 18.2306 43.7509 22.4401C42.9914 26.6497 37.5716 31.5303 31.1997 33.9239C24.8278 36.3176 19.8858 35.2625 19.8858 35.2625C20.8378 35.9336 21.5973 36.314 21.5973 36.314C16.9334 36.5078 14.7477 34.595 14.7477 34.595Z" fill="#772F17"/>
<path d="M33.3355 50.2416C33.3355 50.2416 31.7702 43.5774 33.0432 36.8558C33.0432 36.8558 30.6577 31.8926 30.5793 28.8494C30.5793 28.8494 34.0772 29.8901 35.7495 31.4907C35.7495 31.4907 39.3152 27.9917 44.3428 28.7095C44.3428 28.7095 44.3392 25.3289 44.9739 23.3264C44.9739 23.3264 48.3934 25.5693 49.5879 30.371C49.5879 30.371 52.1875 31.4369 55.753 35.5997C53.97 41.9876 44.1039 50.9342 33.3355 50.2416Z" fill="#231F20"/>
<path d="M35.4036 50.2778C35.4036 50.2778 33.1001 42.7953 34.2233 36.8561C34.2233 36.8561 31.5027 32.6178 31.4349 29.9299C31.4349 29.9299 34.4515 31.1716 35.9277 32.5856C35.9277 32.5856 39.1011 28.961 45.1271 29.4993C45.1271 29.4993 44.9203 26.5315 45.4837 24.7622C45.4837 24.7622 47.9226 26.657 48.978 30.8989C48.978 30.8989 53.1247 33.3033 55.2999 37.0355C52.8752 42.3109 46.2789 49.4883 35.4036 50.2778Z" fill="#E99E22"/>
<path d="M42.2656 39.1379C42.486 37.9434 41.4671 36.7511 39.9898 36.475C38.5125 36.1989 37.1362 36.9434 36.9158 38.1379C36.6954 39.3325 37.7143 40.5247 39.1916 40.8008C40.6689 41.077 42.0452 40.3324 42.2656 39.1379Z" fill="#231F20"/>
<path d="M37.5286 38.32C37.7105 37.3368 38.8444 36.7231 40.0603 36.9492C41.2762 37.1753 42.1177 38.1586 41.9358 39.1419C41.7539 40.1252 40.6201 40.7388 39.4042 40.5128C38.1847 40.2867 37.3468 39.3069 37.5286 38.32Z" fill="white"/>
<path d="M40.9125 38.3021C41.2512 39.1095 41.1229 39.9385 40.6237 40.1503C40.1245 40.362 39.4434 39.8811 39.1011 39.0737C38.7624 38.2662 38.8907 37.4372 39.3899 37.2255C39.8927 37.0137 40.5702 37.4946 40.9125 38.3021Z" fill="#231F20"/>
<path d="M39.1617 38.8047C39.4374 38.8047 39.6609 38.5797 39.6609 38.3022C39.6609 38.0248 39.4374 37.7998 39.1617 37.7998C38.886 37.7998 38.6625 38.0248 38.6625 38.3022C38.6625 38.5797 38.886 38.8047 39.1617 38.8047Z" fill="white"/>
<path d="M47.8595 36.8716C48.6889 35.6107 48.5453 34.0448 47.5388 33.3742C46.5323 32.7035 45.0439 33.182 44.2145 34.4429C43.3851 35.7039 43.5287 37.2697 44.5353 37.9403C45.5418 38.611 47.0301 38.1325 47.8595 36.8716Z" fill="#231F20"/>
<path d="M47.5089 36.8293C48.1926 35.7898 48.0747 34.4993 47.2455 33.9468C46.4163 33.3943 45.1898 33.7891 44.5061 34.8286C43.8223 35.868 43.9402 37.1586 44.7694 37.7111C45.5986 38.2635 46.8251 37.8688 47.5089 36.8293Z" fill="white"/>
<path d="M46.4056 37.4602C46.906 37.2464 47.0353 36.418 46.6944 35.6097C46.3536 34.8016 45.6717 34.3196 45.1714 34.5333C44.671 34.7471 44.5418 35.5755 44.8826 36.3837C45.2235 37.1919 45.9054 37.6739 46.4056 37.4602Z" fill="#231F20"/>
<path d="M45.2591 35.3308C45.0594 35.1371 44.7457 35.1442 44.5532 35.3416C44.3606 35.5426 44.3677 35.8583 44.5638 36.0522C44.7635 36.246 45.0773 36.2388 45.2698 36.0414C45.4624 35.8404 45.4588 35.521 45.2591 35.3308Z" fill="white"/>
<path d="M43.2374 41.7365C43.2374 41.7365 43.9861 40.2292 45.9829 40.4445C45.9829 40.4445 46.0899 41.3776 45.3411 41.88L46.3751 43.5308C46.3751 43.5308 48.5859 42.9925 49.0851 39.7986C49.0851 39.7986 49.5486 42.4901 46.4821 44.2485C42.9878 46.1147 40.991 44.1768 40.991 44.1768C40.991 44.1768 43.5583 45.7916 45.769 43.8538L44.9489 42.1671C44.9489 42.1671 43.8792 42.4901 43.2374 41.7365Z" fill="#231F20"/>
<path d="M37.9708 45.0381C36.3056 45.6123 35.022 45.4651 34.3124 45.2857C34.4586 46.2367 34.6262 47.1016 34.7866 47.8373C35.8706 47.8444 37.7711 47.6937 38.7553 46.653C40.1815 45.1457 38.9336 44.6433 37.9708 45.0381Z" fill="#CB6228"/>
<path d="M38.3167 44.055C40.0425 42.9065 38.9372 42.135 37.9102 42.3037C35.7708 42.5297 34.423 41.8372 33.938 41.5249C33.9773 42.4867 34.0629 43.4269 34.177 44.3169C35.2288 44.5682 37.1258 44.8517 38.3167 44.055Z" fill="#CB6228"/>
<path d="M53.956 35.137C53.6775 35.6645 52.9754 36.6801 51.4348 37.4409C50.5934 37.7997 50.1298 38.8907 51.9446 38.9338C53.3035 38.9661 54.683 37.6777 55.2963 37.0246C54.9041 36.3535 54.4443 35.7219 53.956 35.137Z" fill="#CB6228"/>
<path d="M53.4104 34.5161C52.8503 33.9096 52.2763 33.3713 51.7271 32.9048C51.5703 33.4861 51.1068 34.6273 49.7839 35.7075C49.0423 36.2458 48.8319 37.4158 50.6147 37.0497C51.9017 36.7841 52.9361 35.3128 53.4104 34.5161Z" fill="#CB6228"/>
<path d="M39.8963 33.0518C39.8963 33.0518 40.4312 33.6978 40.859 32.7647C41.1799 32.0685 40.3812 30.7264 39.9605 30.0947C39.3472 30.3065 38.8016 30.5541 38.3239 30.8089C38.6804 31.1498 39.4862 32.0039 39.8963 33.0518Z" fill="#CB6228"/>
<path d="M41.3654 32.2982C41.3654 32.2982 41.6934 33.0734 42.3709 32.3018C42.863 31.742 42.5171 30.2957 42.2925 29.5493C41.6898 29.6283 41.1265 29.7467 40.6094 29.8938C40.8733 30.3998 41.2869 31.3221 41.3654 32.2982Z" fill="#CB6228"/>
<path d="M6.04742 18.5642C6.04742 18.5642 6.71418 17.7998 7.66263 17.6562L7.75893 18.5176C7.75893 18.5176 6.66427 18.8513 6.47528 19.4757C6.47528 19.4721 6.14368 19.3286 6.04742 18.5642Z" fill="white"/>
<path d="M8.32941 17.6062L8.42571 18.4674C8.42571 18.4674 10.9466 17.7963 12.8471 17.5595C12.8471 17.5595 10.1836 17.1755 8.32941 17.6062Z" fill="white"/>
<path opacity="0.53" d="M35.2859 50.1699C35.696 50.1375 36.0953 50.0945 36.4911 50.0442L36.5446 50.0263C33.9774 42.9207 35.261 36.7482 35.261 36.7482C32.4798 33.5184 31.435 29.9297 31.435 29.9297C31.5063 32.6176 34.2233 36.8558 34.2233 36.8558C33.1002 42.7951 35.2859 50.1699 35.2859 50.1699Z" fill="#F3BC6B"/>
<path d="M36.4733 34.2361C36.4733 34.2361 36.3663 33.4394 36.0347 32.4705C35.9634 32.5422 35.9278 32.5853 35.9278 32.5853C34.4516 31.1713 31.435 29.9297 31.435 29.9297C31.435 29.9297 35.9028 32.37 36.4733 34.2361Z" fill="#CB6228"/>
<path d="M48.24 31.724C48.24 31.724 53.6491 36.1991 53.3035 40.5163C54.3373 38.9731 54.7796 38.0796 55.2999 37.0353C53.1252 33.3031 48.9781 30.8986 48.9781 30.8986C47.9227 26.6568 45.4838 24.762 45.4838 24.762C45.4838 24.762 47.3843 26.6281 48.24 31.724Z" fill="#CB6228"/>
<path d="M28.5433 25.3719C28.5433 25.3719 28.6966 24.5716 29.4097 24.6542C30.1229 24.7367 31.403 25.3109 31.5812 27.1339C31.5812 27.1375 30.6435 25.415 28.5433 25.3719Z" fill="#231F20"/>
</g>
<defs>
<clipPath id="clip0_1_425">
<rect width="62" height="52" fill="white"/>
</clipPath>
</defs>
</svg>
